<svg xmlns="http://www.w3.org/2000/svg" width="56" height="34" viewBox="0 0 56 34" fill="none">
<line x1="28" y1="17" x2="0" y2="0.00" stroke="#F2F2F7" stroke-width="0.9" stroke-linecap="round"/>
<line x1="28" y1="17" x2="0" y2="3.40" stroke="#F2F2F7" stroke-width="0.9" stroke-linecap="round"/>
<line x1="28" y1="17" x2="0" y2="6.80" stroke="#F2F2F7" stroke-width="0.9" stroke-linecap="round"/>
<line x1="28" y1="17" x2="0" y2="10.20" stroke="#F2F2F7" stroke-width="0.9" stroke-linecap="round"/>
<line x1="28" y1="17" x2="0" y2="13.60" stroke="#F2F2F7" stroke-width="0.9" stroke-linecap="round"/>
<line x1="28" y1="17" x2="0" y2="17.00" stroke="#F2F2F7" stroke-width="0.9" stroke-linecap="round"/>
<line x1="28" y1="17" x2="0" y2="20.40" stroke="#F2F2F7" stroke-width="0.9" stroke-linecap="round"/>
<line x1="28" y1="17" x2="0" y2="23.80" stroke="#F2F2F7" stroke-width="0.9" stroke-linecap="round"/>
<line x1="28" y1="17" x2="0" y2="27.20" stroke="#F2F2F7" stroke-width="0.9" stroke-linecap="round"/>
<line x1="28" y1="17" x2="0" y2="30.60" stroke="#F2F2F7" stroke-width="0.9" stroke-linecap="round"/>
<line x1="28" y1="17" x2="0" y2="34.00" stroke="#F2F2F7" stroke-width="0.9" stroke-linecap="round"/>
<line x1="28" y1="17" x2="56" y2="0.00" stroke="#4169E1" stroke-width="0.9" stroke-linecap="round"/>
<line x1="28" y1="17" x2="56" y2="3.40" stroke="#4169E1" stroke-width="0.9" stroke-linecap="round"/>
<line x1="28" y1="17" x2="56" y2="6.80" stroke="#4169E1" stroke-width="0.9" stroke-linecap="round"/>
<line x1="28" y1="17" x2="56" y2="10.20" stroke="#4169E1" stroke-width="0.9" stroke-linecap="round"/>
<line x1="28" y1="17" x2="56" y2="13.60" stroke="#4169E1" stroke-width="0.9" stroke-linecap="round"/>
<line x1="28" y1="17" x2="56" y2="17.00" stroke="#4169E1" stroke-width="0.9" stroke-linecap="round"/>
<line x1="28" y1="17" x2="56" y2="20.40" stroke="#4169E1" stroke-width="0.9" stroke-linecap="round"/>
<line x1="28" y1="17" x2="56" y2="23.80" stroke="#4169E1" stroke-width="0.9" stroke-linecap="round"/>
<line x1="28" y1="17" x2="56" y2="27.20" stroke="#4169E1" stroke-width="0.9" stroke-linecap="round"/>
<line x1="28" y1="17" x2="56" y2="30.60" stroke="#4169E1" stroke-width="0.9" stroke-linecap="round"/>
<line x1="28" y1="17" x2="56" y2="34.00" stroke="#4169E1" stroke-width="0.9" stroke-linecap="round"/>
</svg>