<svg xmlns="http://www.w3.org/2000/svg" viewBox="0 0 32 32" width="32" height="32">
  <rect width="32" height="32" rx="7" fill="#08080f"/>
  <!-- Left fan: 11 lines from center to left (white) -->
  <line x1="16" y1="16" x2="2" y2="2.5"  stroke="white" stroke-width="1.2" stroke-linecap="round"/>
  <line x1="16" y1="16" x2="2" y2="5.5"  stroke="white" stroke-width="1.2" stroke-linecap="round"/>
  <line x1="16" y1="16" x2="2" y2="8.5"  stroke="white" stroke-width="1.2" stroke-linecap="round"/>
  <line x1="16" y1="16" x2="2" y2="11.5" stroke="white" stroke-width="1.2" stroke-linecap="round"/>
  <line x1="16" y1="16" x2="2" y2="14.5" stroke="white" stroke-width="1.2" stroke-linecap="round"/>
  <line x1="16" y1="16" x2="2" y2="16"   stroke="white" stroke-width="1.2" stroke-linecap="round"/>
  <line x1="16" y1="16" x2="2" y2="18.5" stroke="white" stroke-width="1.2" stroke-linecap="round"/>
  <line x1="16" y1="16" x2="2" y2="21.5" stroke="white" stroke-width="1.2" stroke-linecap="round"/>
  <line x1="16" y1="16" x2="2" y2="23.5" stroke="white" stroke-width="1.2" stroke-linecap="round"/>
  <line x1="16" y1="16" x2="2" y2="26.5" stroke="white" stroke-width="1.2" stroke-linecap="round"/>
  <line x1="16" y1="16" x2="2" y2="29.5" stroke="white" stroke-width="1.2" stroke-linecap="round"/>
  <!-- Right fan: 11 lines from center to right (teal) -->
  <line x1="16" y1="16" x2="30" y2="2.5"  stroke="#17D5CF" stroke-width="1.2" stroke-linecap="round"/>
  <line x1="16" y1="16" x2="30" y2="5.5"  stroke="#17D5CF" stroke-width="1.2" stroke-linecap="round"/>
  <line x1="16" y1="16" x2="30" y2="8.5"  stroke="#17D5CF" stroke-width="1.2" stroke-linecap="round"/>
  <line x1="16" y1="16" x2="30" y2="11.5" stroke="#17D5CF" stroke-width="1.2" stroke-linecap="round"/>
  <line x1="16" y1="16" x2="30" y2="14.5" stroke="#17D5CF" stroke-width="1.2" stroke-linecap="round"/>
  <line x1="16" y1="16" x2="30" y2="16"   stroke="#17D5CF" stroke-width="1.2" stroke-linecap="round"/>
  <line x1="16" y1="16" x2="30" y2="18.5" stroke="#17D5CF" stroke-width="1.2" stroke-linecap="round"/>
  <line x1="16" y1="16" x2="30" y2="21.5" stroke="#17D5CF" stroke-width="1.2" stroke-linecap="round"/>
  <line x1="16" y1="16" x2="30" y2="23.5" stroke="#17D5CF" stroke-width="1.2" stroke-linecap="round"/>
  <line x1="16" y1="16" x2="30" y2="26.5" stroke="#17D5CF" stroke-width="1.2" stroke-linecap="round"/>
  <line x1="16" y1="16" x2="30" y2="29.5" stroke="#17D5CF" stroke-width="1.2" stroke-linecap="round"/>
</svg>
