<svg xmlns="http://www.w3.org/2000/svg" viewBox="0 0 56 34" fill="none">
  <line x1="28" y1="17" x2="0" y2="0"   stroke="white" stroke-width="1.6" stroke-linecap="round"/>
  <line x1="28" y1="17" x2="0" y2="3.4" stroke="white" stroke-width="1.6" stroke-linecap="round"/>
  <line x1="28" y1="17" x2="0" y2="6.8" stroke="white" stroke-width="1.6" stroke-linecap="round"/>
  <line x1="28" y1="17" x2="0" y2="10.2" stroke="white" stroke-width="1.6" stroke-linecap="round"/>
  <line x1="28" y1="17" x2="0" y2="13.6" stroke="white" stroke-width="1.6" stroke-linecap="round"/>
  <line x1="28" y1="17" x2="0" y2="17" stroke="white" stroke-width="1.6" stroke-linecap="round"/>
  <line x1="28" y1="17" x2="0" y2="20.4" stroke="white" stroke-width="1.6" stroke-linecap="round"/>
  <line x1="28" y1="17" x2="0" y2="23.8" stroke="white" stroke-width="1.6" stroke-linecap="round"/>
  <line x1="28" y1="17" x2="0" y2="27.2" stroke="white" stroke-width="1.6" stroke-linecap="round"/>
  <line x1="28" y1="17" x2="0" y2="30.6" stroke="white" stroke-width="1.6" stroke-linecap="round"/>
  <line x1="28" y1="17" x2="0" y2="34" stroke="white" stroke-width="1.6" stroke-linecap="round"/>
  <line x1="28" y1="17" x2="56" y2="0"   stroke="#17D5CF" stroke-width="1.6" stroke-linecap="round"/>
  <line x1="28" y1="17" x2="56" y2="3.4" stroke="#17D5CF" stroke-width="1.6" stroke-linecap="round"/>
  <line x1="28" y1="17" x2="56" y2="6.8" stroke="#17D5CF" stroke-width="1.6" stroke-linecap="round"/>
  <line x1="28" y1="17" x2="56" y2="10.2" stroke="#17D5CF" stroke-width="1.6" stroke-linecap="round"/>
  <line x1="28" y1="17" x2="56" y2="13.6" stroke="#17D5CF" stroke-width="1.6" stroke-linecap="round"/>
  <line x1="28" y1="17" x2="56" y2="17" stroke="#17D5CF" stroke-width="1.6" stroke-linecap="round"/>
  <line x1="28" y1="17" x2="56" y2="20.4" stroke="#17D5CF" stroke-width="1.6" stroke-linecap="round"/>
  <line x1="28" y1="17" x2="56" y2="23.8" stroke="#17D5CF" stroke-width="1.6" stroke-linecap="round"/>
  <line x1="28" y1="17" x2="56" y2="27.2" stroke="#17D5CF" stroke-width="1.6" stroke-linecap="round"/>
  <line x1="28" y1="17" x2="56" y2="30.6" stroke="#17D5CF" stroke-width="1.6" stroke-linecap="round"/>
  <line x1="28" y1="17" x2="56" y2="34" stroke="#17D5CF" stroke-width="1.6" stroke-linecap="round"/>
</svg>
