<svg xmlns="http://www.w3.org/2000/svg" width="1456" height="816" viewBox="0 0 1456 816" fill="none">
  <!-- Subtle diagonal network lines -->
  <g stroke="#1C39BB" stroke-opacity="0.04" stroke-width="0.7" fill="none">
    <line x1="0"    y1="816" x2="580"  y2="0"/>
    <line x1="200"  y1="816" x2="780"  y2="0"/>
    <line x1="480"  y1="816" x2="1060" y2="0"/>
    <line x1="876"  y1="816" x2="1456" y2="0"/>
    <line x1="0"    y1="0"   x2="430"  y2="816"/>
    <line x1="260"  y1="0"   x2="690"  y2="816"/>
  </g>

  <!-- Scattered mini bowtie marks — ZAWIOS logo watermarks at various sizes/opacities -->
  <!-- Each bowtie: two fan groups converging at center point cx,cy -->

  <!-- mark 1 — large, 50% opacity, top-left area -->
  <g transform="translate(42,30) scale(2.8)" stroke="#1C39BB" stroke-opacity="0.15" stroke-width="0.9" stroke-linecap="round" fill="none">
    <path d="M16,16 C13.8,15.2 11.6,13 9,9.2"/><path d="M16,16 C13.4,15.6 10.8,14.2 7.2,11.6"/><path d="M16,16 C13.4,16 10.6,16 6,16"/><path d="M16,16 C13.4,16.4 10.8,17.8 7.2,20.4"/><path d="M16,16 C13.8,16.8 11.6,19 9,22.8"/>
    <path d="M16,16 C18.2,15.2 20.4,13 23,9.2"/><path d="M16,16 C18.6,15.6 21.2,14.2 24.8,11.6"/><path d="M16,16 C18.6,16 21.4,16 26,16"/><path d="M16,16 C18.6,16.4 21.2,17.8 24.8,20.4"/><path d="M16,16 C18.2,16.8 20.4,19 23,22.8"/>
  </g>

  <!-- mark 2 — medium, top area -->
  <g transform="translate(375,15) scale(1.8)" stroke="#1C39BB" stroke-opacity="0.10" stroke-width="0.9" stroke-linecap="round" fill="none">
    <path d="M16,16 C13.8,15.2 11.6,13 9,9.2"/><path d="M16,16 C13.4,15.6 10.8,14.2 7.2,11.6"/><path d="M16,16 C13.4,16 10.6,16 6,16"/><path d="M16,16 C13.4,16.4 10.8,17.8 7.2,20.4"/><path d="M16,16 C13.8,16.8 11.6,19 9,22.8"/>
    <path d="M16,16 C18.2,15.2 20.4,13 23,9.2"/><path d="M16,16 C18.6,15.6 21.2,14.2 24.8,11.6"/><path d="M16,16 C18.6,16 21.4,16 26,16"/><path d="M16,16 C18.6,16.4 21.2,17.8 24.8,20.4"/><path d="M16,16 C18.2,16.8 20.4,19 23,22.8"/>
  </g>

  <!-- mark 3 — small, top-right -->
  <g transform="translate(752,18) scale(1.4)" stroke="#1C39BB" stroke-opacity="0.08" stroke-width="0.9" stroke-linecap="round" fill="none">
    <path d="M16,16 C13.8,15.2 11.6,13 9,9.2"/><path d="M16,16 C13.4,16 10.6,16 6,16"/><path d="M16,16 C13.8,16.8 11.6,19 9,22.8"/>
    <path d="M16,16 C18.2,15.2 20.4,13 23,9.2"/><path d="M16,16 C18.6,16 21.4,16 26,16"/><path d="M16,16 C18.2,16.8 20.4,19 23,22.8"/>
  </g>

  <!-- mark 4 — large, top-right area -->
  <g transform="translate(1140,10) scale(2.2)" stroke="#1C39BB" stroke-opacity="0.12" stroke-width="0.9" stroke-linecap="round" fill="none">
    <path d="M16,16 C13.8,15.2 11.6,13 9,9.2"/><path d="M16,16 C13.4,15.6 10.8,14.2 7.2,11.6"/><path d="M16,16 C13.4,16 10.6,16 6,16"/><path d="M16,16 C13.4,16.4 10.8,17.8 7.2,20.4"/><path d="M16,16 C13.8,16.8 11.6,19 9,22.8"/>
    <path d="M16,16 C18.2,15.2 20.4,13 23,9.2"/><path d="M16,16 C18.6,15.6 21.2,14.2 24.8,11.6"/><path d="M16,16 C18.6,16 21.4,16 26,16"/><path d="M16,16 C18.6,16.4 21.2,17.8 24.8,20.4"/><path d="M16,16 C18.2,16.8 20.4,19 23,22.8"/>
  </g>

  <!-- mark 5 — very small, row 2 -->
  <g transform="translate(1390,22) scale(1.2)" stroke="#1C39BB" stroke-opacity="0.07" stroke-width="0.9" stroke-linecap="round" fill="none">
    <path d="M16,16 C13.8,15.2 11.6,13 9,9.2"/><path d="M16,16 C13.4,16 10.6,16 6,16"/><path d="M16,16 C13.8,16.8 11.6,19 9,22.8"/>
    <path d="M16,16 C18.2,15.2 20.4,13 23,9.2"/><path d="M16,16 C18.6,16 21.4,16 26,16"/><path d="M16,16 C18.2,16.8 20.4,19 23,22.8"/>
  </g>

  <!-- Row 2 marks -->
  <g transform="translate(255,200) scale(1.6)" stroke="#1C39BB" stroke-opacity="0.10" stroke-width="0.9" stroke-linecap="round" fill="none">
    <path d="M16,16 C13.8,15.2 11.6,13 9,9.2"/><path d="M16,16 C13.4,16 10.6,16 6,16"/><path d="M16,16 C13.8,16.8 11.6,19 9,22.8"/>
    <path d="M16,16 C18.2,15.2 20.4,13 23,9.2"/><path d="M16,16 C18.6,16 21.4,16 26,16"/><path d="M16,16 C18.2,16.8 20.4,19 23,22.8"/>
  </g>
  <g transform="translate(500,195) scale(1.4)" stroke="#1C39BB" stroke-opacity="0.08" stroke-width="0.9" stroke-linecap="round" fill="none">
    <path d="M16,16 C13.8,15.2 11.6,13 9,9.2"/><path d="M16,16 C13.4,16 10.6,16 6,16"/><path d="M16,16 C13.8,16.8 11.6,19 9,22.8"/>
    <path d="M16,16 C18.2,15.2 20.4,13 23,9.2"/><path d="M16,16 C18.6,16 21.4,16 26,16"/><path d="M16,16 C18.2,16.8 20.4,19 23,22.8"/>
  </g>
  <g transform="translate(1000,210) scale(1.8)" stroke="#1C39BB" stroke-opacity="0.11" stroke-width="0.9" stroke-linecap="round" fill="none">
    <path d="M16,16 C13.8,15.2 11.6,13 9,9.2"/><path d="M16,16 C13.4,15.6 10.8,14.2 7.2,11.6"/><path d="M16,16 C13.4,16 10.6,16 6,16"/><path d="M16,16 C13.4,16.4 10.8,17.8 7.2,20.4"/><path d="M16,16 C13.8,16.8 11.6,19 9,22.8"/>
    <path d="M16,16 C18.2,15.2 20.4,13 23,9.2"/><path d="M16,16 C18.6,15.6 21.2,14.2 24.8,11.6"/><path d="M16,16 C18.6,16 21.4,16 26,16"/><path d="M16,16 C18.6,16.4 21.2,17.8 24.8,20.4"/><path d="M16,16 C18.2,16.8 20.4,19 23,22.8"/>
  </g>
  <g transform="translate(1136,218) scale(1.4)" stroke="#1C39BB" stroke-opacity="0.07" stroke-width="0.9" stroke-linecap="round" fill="none">
    <path d="M16,16 C13.8,15.2 11.6,13 9,9.2"/><path d="M16,16 C13.4,16 10.6,16 6,16"/><path d="M16,16 C13.8,16.8 11.6,19 9,22.8"/>
    <path d="M16,16 C18.2,15.2 20.4,13 23,9.2"/><path d="M16,16 C18.6,16 21.4,16 26,16"/><path d="M16,16 C18.2,16.8 20.4,19 23,22.8"/>
  </g>
  <g transform="translate(1250,225) scale(1.8)" stroke="#2A50E0" stroke-opacity="0.18" stroke-width="0.9" stroke-linecap="round" fill="none">
    <path d="M16,16 C13.8,15.2 11.6,13 9,9.2"/><path d="M16,16 C13.4,15.6 10.8,14.2 7.2,11.6"/><path d="M16,16 C13.4,16 10.6,16 6,16"/><path d="M16,16 C13.4,16.4 10.8,17.8 7.2,20.4"/><path d="M16,16 C13.8,16.8 11.6,19 9,22.8"/>
    <path d="M16,16 C18.2,15.2 20.4,13 23,9.2"/><path d="M16,16 C18.6,15.6 21.2,14.2 24.8,11.6"/><path d="M16,16 C18.6,16 21.4,16 26,16"/><path d="M16,16 C18.6,16.4 21.2,17.8 24.8,20.4"/><path d="M16,16 C18.2,16.8 20.4,19 23,22.8"/>
  </g>

  <!-- Middle rows -->
  <g transform="translate(28,408) scale(1.4)" stroke="#1C39BB" stroke-opacity="0.07" stroke-width="0.9" stroke-linecap="round" fill="none">
    <path d="M16,16 C13.8,15.2 11.6,13 9,9.2"/><path d="M16,16 C13.4,16 10.6,16 6,16"/><path d="M16,16 C13.8,16.8 11.6,19 9,22.8"/>
    <path d="M16,16 C18.2,15.2 20.4,13 23,9.2"/><path d="M16,16 C18.6,16 21.4,16 26,16"/><path d="M16,16 C18.2,16.8 20.4,19 23,22.8"/>
  </g>
  <g transform="translate(488,420) scale(1.8)" stroke="#1C39BB" stroke-opacity="0.14" stroke-width="0.9" stroke-linecap="round" fill="none">
    <path d="M16,16 C13.8,15.2 11.6,13 9,9.2"/><path d="M16,16 C13.4,15.6 10.8,14.2 7.2,11.6"/><path d="M16,16 C13.4,16 10.6,16 6,16"/><path d="M16,16 C13.4,16.4 10.8,17.8 7.2,20.4"/><path d="M16,16 C13.8,16.8 11.6,19 9,22.8"/>
    <path d="M16,16 C18.2,15.2 20.4,13 23,9.2"/><path d="M16,16 C18.6,15.6 21.2,14.2 24.8,11.6"/><path d="M16,16 C18.6,16 21.4,16 26,16"/><path d="M16,16 C18.6,16.4 21.2,17.8 24.8,20.4"/><path d="M16,16 C18.2,16.8 20.4,19 23,22.8"/>
  </g>
  <g transform="translate(990,402) scale(1.4)" stroke="#1C39BB" stroke-opacity="0.08" stroke-width="0.9" stroke-linecap="round" fill="none">
    <path d="M16,16 C13.8,15.2 11.6,13 9,9.2"/><path d="M16,16 C13.4,16 10.6,16 6,16"/><path d="M16,16 C13.8,16.8 11.6,19 9,22.8"/>
    <path d="M16,16 C18.2,15.2 20.4,13 23,9.2"/><path d="M16,16 C18.6,16 21.4,16 26,16"/><path d="M16,16 C18.2,16.8 20.4,19 23,22.8"/>
  </g>
  <g transform="translate(1425,415) scale(1.4)" stroke="#1C39BB" stroke-opacity="0.07" stroke-width="0.9" stroke-linecap="round" fill="none">
    <path d="M16,16 C13.8,15.2 11.6,13 9,9.2"/><path d="M16,16 C13.4,16 10.6,16 6,16"/><path d="M16,16 C13.8,16.8 11.6,19 9,22.8"/>
    <path d="M16,16 C18.2,15.2 20.4,13 23,9.2"/><path d="M16,16 C18.6,16 21.4,16 26,16"/><path d="M16,16 C18.2,16.8 20.4,19 23,22.8"/>
  </g>

  <!-- Bottom rows -->
  <g transform="translate(28,612) scale(1.4)" stroke="#1C39BB" stroke-opacity="0.07" stroke-width="0.9" stroke-linecap="round" fill="none">
    <path d="M16,16 C13.4,16 10.6,16 6,16"/><path d="M16,16 C18.6,16 21.4,16 26,16"/>
  </g>
  <g transform="translate(360,620) scale(1.6)" stroke="#1C39BB" stroke-opacity="0.10" stroke-width="0.9" stroke-linecap="round" fill="none">
    <path d="M16,16 C13.8,15.2 11.6,13 9,9.2"/><path d="M16,16 C13.4,16 10.6,16 6,16"/><path d="M16,16 C13.8,16.8 11.6,19 9,22.8"/>
    <path d="M16,16 C18.2,15.2 20.4,13 23,9.2"/><path d="M16,16 C18.6,16 21.4,16 26,16"/><path d="M16,16 C18.2,16.8 20.4,19 23,22.8"/>
  </g>
  <g transform="translate(640,608) scale(1.4)" stroke="#1C39BB" stroke-opacity="0.08" stroke-width="0.9" stroke-linecap="round" fill="none">
    <path d="M16,16 C13.4,16 10.6,16 6,16"/><path d="M16,16 C18.6,16 21.4,16 26,16"/>
  </g>
  <g transform="translate(876,730) scale(2.0)" stroke="#1C39BB" stroke-opacity="0.14" stroke-width="0.9" stroke-linecap="round" fill="none">
    <path d="M16,16 C13.8,15.2 11.6,13 9,9.2"/><path d="M16,16 C13.4,15.6 10.8,14.2 7.2,11.6"/><path d="M16,16 C13.4,16 10.6,16 6,16"/><path d="M16,16 C13.4,16.4 10.8,17.8 7.2,20.4"/><path d="M16,16 C13.8,16.8 11.6,19 9,22.8"/>
    <path d="M16,16 C18.2,15.2 20.4,13 23,9.2"/><path d="M16,16 C18.6,15.6 21.2,14.2 24.8,11.6"/><path d="M16,16 C18.6,16 21.4,16 26,16"/><path d="M16,16 C18.6,16.4 21.2,17.8 24.8,20.4"/><path d="M16,16 C18.2,16.8 20.4,19 23,22.8"/>
  </g>
  <g transform="translate(1356,740) scale(2.0)" stroke="#2A50E0" stroke-opacity="0.16" stroke-width="0.9" stroke-linecap="round" fill="none">
    <path d="M16,16 C13.8,15.2 11.6,13 9,9.2"/><path d="M16,16 C13.4,15.6 10.8,14.2 7.2,11.6"/><path d="M16,16 C13.4,16 10.6,16 6,16"/><path d="M16,16 C13.4,16.4 10.8,17.8 7.2,20.4"/><path d="M16,16 C13.8,16.8 11.6,19 9,22.8"/>
    <path d="M16,16 C18.2,15.2 20.4,13 23,9.2"/><path d="M16,16 C18.6,15.6 21.2,14.2 24.8,11.6"/><path d="M16,16 C18.6,16 21.4,16 26,16"/><path d="M16,16 C18.6,16.4 21.2,17.8 24.8,20.4"/><path d="M16,16 C18.2,16.8 20.4,19 23,22.8"/>
  </g>
</svg>
