<svg xmlns="http://www.w3.org/2000/svg" width="32" height="32" viewBox="0 0 32 32" fill="none">
  <rect width="32" height="32" rx="7" fill="#0C0D10"/>
  <circle cx="16" cy="16" r="2" fill="#17D5CF" opacity="0.3"/>
  <line x1="16" y1="16" x2="2" y2="6.4" stroke="#EBEBEB" stroke-width="0.7" stroke-linecap="round" opacity="0.5"/>
  <line x1="16" y1="16" x2="2" y2="8.53" stroke="#EBEBEB" stroke-width="0.7" stroke-linecap="round" opacity="0.6"/>
  <line x1="16" y1="16" x2="2" y2="10.67" stroke="#EBEBEB" stroke-width="0.7" stroke-linecap="round" opacity="0.72"/>
  <line x1="16" y1="16" x2="2" y2="12.8" stroke="#EBEBEB" stroke-width="0.7" stroke-linecap="round" opacity="0.85"/>
  <line x1="16" y1="16" x2="2" y2="14.93" stroke="#EBEBEB" stroke-width="0.7" stroke-linecap="round" opacity="0.95"/>
  <line x1="16" y1="16" x2="2" y2="17.07" stroke="#EBEBEB" stroke-width="0.7" stroke-linecap="round" opacity="1"/>
  <line x1="16" y1="16" x2="2" y2="19.2" stroke="#EBEBEB" stroke-width="0.7" stroke-linecap="round" opacity="0.95"/>
  <line x1="16" y1="16" x2="2" y2="21.33" stroke="#EBEBEB" stroke-width="0.7" stroke-linecap="round" opacity="0.85"/>
  <line x1="16" y1="16" x2="2" y2="23.47" stroke="#EBEBEB" stroke-width="0.7" stroke-linecap="round" opacity="0.72"/>
  <line x1="16" y1="16" x2="2" y2="25.6" stroke="#EBEBEB" stroke-width="0.7" stroke-linecap="round" opacity="0.6"/>
  <line x1="16" y1="16" x2="30" y2="6.4" stroke="#EBEBEB" stroke-width="0.7" stroke-linecap="round" opacity="0.5"/>
  <line x1="16" y1="16" x2="30" y2="8.53" stroke="#EBEBEB" stroke-width="0.7" stroke-linecap="round" opacity="0.6"/>
  <line x1="16" y1="16" x2="30" y2="10.67" stroke="#EBEBEB" stroke-width="0.7" stroke-linecap="round" opacity="0.72"/>
  <line x1="16" y1="16" x2="30" y2="12.8" stroke="#EBEBEB" stroke-width="0.7" stroke-linecap="round" opacity="0.85"/>
  <line x1="16" y1="16" x2="30" y2="14.93" stroke="#EBEBEB" stroke-width="0.7" stroke-linecap="round" opacity="0.95"/>
  <line x1="16" y1="16" x2="30" y2="17.07" stroke="#EBEBEB" stroke-width="0.7" stroke-linecap="round" opacity="1"/>
  <line x1="16" y1="16" x2="30" y2="19.2" stroke="#EBEBEB" stroke-width="0.7" stroke-linecap="round" opacity="0.95"/>
  <line x1="16" y1="16" x2="30" y2="21.33" stroke="#EBEBEB" stroke-width="0.7" stroke-linecap="round" opacity="0.85"/>
  <line x1="16" y1="16" x2="30" y2="23.47" stroke="#EBEBEB" stroke-width="0.7" stroke-linecap="round" opacity="0.72"/>
  <line x1="16" y1="16" x2="30" y2="25.6" stroke="#EBEBEB" stroke-width="0.7" stroke-linecap="round" opacity="0.6"/>
</svg>
