<svg xmlns="http://www.w3.org/2000/svg" width="64" height="64" viewBox="0 0 64 64" fill="none">
  <g stroke="#FFFFFF" stroke-width="2" stroke-linecap="round" stroke-linejoin="round">
    <path d="M32 32 C27.8 30.6 23.6 26.8 18.8 20.6"/>
    <path d="M32 32 C27.4 31.2 22.8 28.8 16.8 24.6"/>
    <path d="M32 32 C27.2 32.0 22.0 32.0 13.0 32.0"/>
    <path d="M32 32 C27.4 32.8 22.8 35.2 16.8 39.4"/>
    <path d="M32 32 C27.8 33.4 23.6 37.2 18.8 43.4"/>
    <path d="M32 32 C29.6 34.8 27.4 38.8 25.6 45.6"/>
    <path d="M32 32 C30.4 34.2 29.2 37.0 28.2 40.8"/>
    <path d="M32 32 C31.0 33.4 30.2 35.2 29.6 37.6"/>
  </g>
  <g stroke="#6B6EF8" stroke-width="2" stroke-linecap="round" stroke-linejoin="round">
    <path d="M32 32 C36.2 30.6 40.4 26.8 45.2 20.6"/>
    <path d="M32 32 C36.6 31.2 41.2 28.8 47.2 24.6"/>
    <path d="M32 32 C36.8 32.0 42.0 32.0 51.0 32.0"/>
    <path d="M32 32 C36.6 32.8 41.2 35.2 47.2 39.4"/>
    <path d="M32 32 C36.2 33.4 40.4 37.2 45.2 43.4"/>
    <path d="M32 32 C34.4 34.8 36.6 38.8 38.4 45.6"/>
    <path d="M32 32 C33.6 34.2 34.8 37.0 35.8 40.8"/>
    <path d="M32 32 C33.0 33.4 33.8 35.2 34.4 37.6"/>
  </g>
  <path d="M31.2 32 L32.8 32" stroke="#FFFFFF" stroke-width="2" stroke-linecap="round"/>
</svg>
