<svg xmlns="http://www.w3.org/2000/svg" width="32" height="32" viewBox="0 0 32 32" fill="none">
  <rect width="32" height="32" rx="7" fill="#08080F"/>
  <g stroke="#FFFFFF" stroke-width="1.8" stroke-linecap="round" stroke-linejoin="round">
    <path d="M16 16 C13.8 15.2 11.6 13.0 9.0 9.2"/>
    <path d="M16 16 C13.6 15.8 11.0 14.4 7.8 12.0"/>
    <path d="M16 16 C13.6 16.0 10.8 16.0 6.2 16.0"/>
    <path d="M16 16 C13.6 16.2 11.0 17.6 7.8 20.0"/>
    <path d="M16 16 C13.8 16.8 11.6 19.0 9.0 22.8"/>
    <path d="M16 16 C14.6 17.6 13.2 20.0 12.0 24.0"/>
  </g>
  <g stroke="#6B6EF8" stroke-width="1.8" stroke-linecap="round" stroke-linejoin="round">
    <path d="M16 16 C18.2 15.2 20.4 13.0 23.0 9.2"/>
    <path d="M16 16 C18.4 15.8 21.0 14.4 24.2 12.0"/>
    <path d="M16 16 C18.4 16.0 21.2 16.0 25.8 16.0"/>
    <path d="M16 16 C18.4 16.2 21.0 17.6 24.2 20.0"/>
    <path d="M16 16 C18.2 16.8 20.4 19.0 23.0 22.8"/>
    <path d="M16 16 C17.4 17.6 18.8 20.0 20.0 24.0"/>
  </g>
  <path d="M15.5 16 L16.5 16" stroke="#FFFFFF" stroke-width="1.8" stroke-linecap="round"/>
</svg>
